<svg width="908" height="912" viewBox="0 0 908 912" fill="none" xmlns="http://www.w3.org/2000/svg">
<path d="M554.249 311.636L555.093 311.106C457.504 122.169 518.797 -113.311 701.678 -229.384C817.856 -45.3743 771.547 195.065 600.563 323.651L601.093 324.494C790.029 226.905 1025.51 288.199 1141.58 471.079C957.572 587.259 717.131 540.95 588.546 369.965L587.702 370.495C685.293 559.431 624.001 794.911 441.12 910.983C324.939 726.974 371.248 486.534 542.233 357.947L541.703 357.104C352.768 454.694 117.288 393.402 1.21586 210.521C185.224 94.3419 425.662 140.652 554.249 311.636ZM570.971 341.08L571.186 341.419L571.563 341.283L571.581 341.277L572.07 341.1L571.875 340.619L571.866 340.597L571.641 340.042L571.136 340.362L571.134 340.362L571.132 340.365L571.129 340.367L571.128 340.367L571.126 340.369L571.125 340.368L571.123 340.37L571.121 340.37L571.119 340.373L571.117 340.374L570.694 340.642L570.961 341.064L570.971 341.08Z" stroke="white" stroke-opacity="0.09"/>
</svg>
