<svg xmlns="http://www.w3.org/2000/svg" width="50" height="50" fill="none"><g clip-path="url(#a)"><path fill="#0ACF83" d="M16.667 50c4.6 0 8.333-3.733 8.333-8.333v-8.334h-8.333a8.336 8.336 0 0 0-8.334 8.334c0 4.6 3.734 8.333 8.334 8.333z"/><path fill="#A259FF" d="M8.333 25c0-4.6 3.734-8.333 8.334-8.333H25v16.666h-8.333A8.336 8.336 0 0 1 8.333 25z"/><path fill="#F24E1E" d="M8.333 8.333c0-4.6 3.734-8.333 8.334-8.333H25v16.667h-8.333a8.336 8.336 0 0 1-8.334-8.334z"/><path fill="#FF7262" d="M25 0h8.333c4.6 0 8.334 3.733 8.334 8.333s-3.734 8.334-8.334 8.334H25V0z"/><path fill="#1ABCFE" d="M41.667 25c0 4.6-3.734 8.333-8.334 8.333A8.336 8.336 0 0 1 25 25c0-4.6 3.733-8.333 8.333-8.333S41.667 20.4 41.667 25z"/></g><defs><clipPath id="a"><path fill="#fff" d="M0 0h50v50H0z"/></clipPath></defs></svg>