<svg width="751" height="795" viewBox="0 0 751 795" fill="none" xmlns="http://www.w3.org/2000/svg">
<g clip-path="url(#clip0_603_10005)">
<path d="M376 198.7V0.507812H750.5V198.7C750.5 308.179 666.645 396.893 563.25 396.893C459.855 396.893 376 308.179 376 198.7ZM375 198.7V396.893H0.5V0.507812H187.75C291.146 0.507812 375 89.2219 375 198.7ZM563.25 397.908H750.5V794.293H563.25C459.855 794.293 376 705.579 376 596.1V397.908H563.25ZM375 596.1V794.293H0.5V596.1C0.5 486.622 84.354 397.908 187.75 397.908C291.146 397.908 375 486.622 375 596.1Z" fill="white" fill-opacity="0.01" stroke="#262626" stroke-width="1.00751"/>
</g>
<defs>
<clipPath id="clip0_603_10005">
<rect width="751" height="794.8" fill="white"/>
</clipPath>
</defs>
</svg>
