<svg xmlns="http://www.w3.org/2000/svg" width="50" height="50" fill="none"><path fill="#001E36" d="M3.125 18.958c0-5.542 0-8.313 1.079-10.43a9.896 9.896 0 0 1 4.324-4.324c2.117-1.079 4.888-1.079 10.43-1.079h12.084c5.542 0 8.313 0 10.43 1.079a9.895 9.895 0 0 1 4.324 4.324c1.079 2.117 1.079 4.888 1.079 10.43v12.084c0 5.542 0 8.313-1.079 10.43a9.895 9.895 0 0 1-4.324 4.324c-2.117 1.079-4.888 1.079-10.43 1.079H18.958c-5.542 0-8.313 0-10.43-1.079a9.895 9.895 0 0 1-4.324-4.324c-1.079-2.117-1.079-4.888-1.079-10.43V18.958z"/><path fill="#31A8FF" d="M12.5 35.182v-19.24c0-.13.055-.205.182-.205 1.884 0 3.767-.112 5.651-.112 3.058 0 6.369 1.046 7.529 4.244.274.785.42 1.59.42 2.43 0 1.609-.365 2.936-1.095 3.983-2.036 2.925-5.567 2.88-8.731 2.88v6.001c.024.178-.127.262-.274.262H12.72c-.146 0-.219-.075-.219-.243zm3.974-15.836v6.282c1.255.091 2.568.102 3.773-.3 1.331-.383 2.06-1.535 2.06-2.916.037-1.177-.604-2.305-1.695-2.73-1.191-.495-2.852-.525-4.138-.336zm21.177 5.041a6.742 6.742 0 0 0-1.746-.633c-.78-.183-3.858-.826-3.86.783.028.899 1.454 1.339 2.084 1.595 2.212.76 4.716 2.117 4.667 4.847.067 3.397-3.225 4.755-6.046 4.756-1.47.015-3-.212-4.344-.843a.398.398 0 0 1-.205-.361V31.28c-.015-.13.125-.245.235-.15 1.317.796 2.878 1.183 4.402 1.203.672 0 2.006-.065 1.996-1.053 0-.949-1.595-1.385-2.231-1.626a10.69 10.69 0 0 1-2.597-1.354c-1.121-.8-1.824-2.082-1.805-3.492-.007-3.2 3.023-4.635 5.752-4.636 1.276-.01 2.646.084 3.833.602.171.05.206.23.206.392v3.04c.01.189-.199.253-.34.18z"/></svg>